<svg width="32" height="33" viewBox="0 0 32 33" fill="none" xmlns="http://www.w3.org/2000/svg">
<path d="M31.5177 20.3705C29.3808 28.942 20.6992 34.1584 12.1267 32.021C3.55778 29.8841 -1.65868 21.202 0.479177 12.6312C2.61515 4.0587 11.2967 -1.15814 19.8666 0.978775C28.4385 3.11569 33.6546 11.7987 31.5175 20.3706L31.5176 20.3705H31.5177Z" fill="#F3BA2F"/>
<path fill-rule="evenodd" clip-rule="evenodd" d="M16 10.6547L11.8569 14.7978L11.857 14.7976L9.44641 12.3869L16 5.83334L22.5557 12.3889L20.1451 14.7996L16 10.6547ZM7.7441 14.0889L5.33334 16.5L7.74392 18.9103L10.1547 16.4995L7.7441 14.0889ZM11.8569 18.2025L16 22.3453L20.145 18.2005L22.5569 20.6099L22.5557 20.6112L16 27.1667L9.44641 20.6131L9.443 20.6097L11.8569 18.2025ZM24.2561 14.0903L21.8453 16.501L24.256 18.9116L26.6667 16.5009L24.2561 14.0903Z" fill="white"/>
<path d="M18.445 16.4987H18.446L16 14.0526L14.192 15.86L13.9843 16.0678L13.556 16.4962L13.5526 16.4996L13.556 16.5031L16 18.9474L18.4462 16.5013L18.4474 16.4999L18.4451 16.4987" fill="white"/>
</svg>
