<svg width="32" height="32" viewBox="0 0 32 32" fill="none" xmlns="http://www.w3.org/2000/svg">
<g clip-path="url(#clip0_1752_6157)">
<path d="M31.5177 19.8705C29.3808 28.442 20.6992 33.6584 12.1267 31.521C3.55778 29.3841 -1.65868 20.702 0.479177 12.1312C2.61515 3.5587 11.2967 -1.65814 19.8666 0.478775C28.4385 2.61569 33.6546 11.2987 31.5175 19.8706L31.5176 19.8705H31.5177Z" fill="#B2B8C0"/>
<path fill-rule="evenodd" clip-rule="evenodd" d="M23.0535 13.7204C23.3719 11.5911 21.7509 10.4466 19.5342 9.68305L20.2533 6.79879L18.4976 6.36131L17.7975 9.16963C17.336 9.05451 16.8619 8.94603 16.3908 8.8385L17.0959 6.01165L15.3413 5.57416L14.6218 8.45748C14.2398 8.37051 13.8647 8.28456 13.5007 8.194L13.5027 8.18493L11.0815 7.58031L10.6145 9.45555C10.6145 9.45555 11.9171 9.75414 11.8897 9.77252C12.6006 9.94997 12.7292 10.4206 12.7079 10.7937L11.8887 14.0795C11.9377 14.0919 12.0012 14.1099 12.0712 14.1381L12.0203 14.1254C11.9769 14.1145 11.9319 14.1033 11.8857 14.0922L10.7375 18.6952C10.6506 18.9112 10.4301 19.2354 9.933 19.1123C9.9506 19.1378 8.65691 18.7938 8.65691 18.7938L7.78522 20.8036L10.07 21.3731C10.3202 21.4359 10.5675 21.5003 10.8122 21.5641C10.9833 21.6087 11.1531 21.653 11.3218 21.6961L10.5953 24.6135L12.349 25.051L13.0685 22.1646C13.5476 22.2946 14.0125 22.4146 14.4677 22.5277L13.7506 25.4005L15.5064 25.8379L16.2329 22.9261C19.2268 23.4927 21.4779 23.2642 22.4255 20.5563C23.189 18.376 22.3875 17.1185 20.8124 16.2984C21.9596 16.0338 22.8237 15.2793 23.0541 13.7206L23.0536 13.7202L23.0535 13.7204ZM19.042 19.3455C18.5442 21.3458 15.4132 20.5188 13.9806 20.1404C13.8518 20.1064 13.7367 20.076 13.6384 20.0516L14.6026 16.1866C14.7223 16.2165 14.8685 16.2493 15.0343 16.2865L15.0343 16.2865C16.5161 16.6191 19.5521 17.3004 19.0421 19.3455H19.042ZM15.3315 14.4927C16.5258 14.8115 19.1313 15.5068 19.585 13.6888H19.5852C20.0485 11.8294 17.5165 11.2688 16.2798 10.995C16.1407 10.9642 16.018 10.937 15.9178 10.9121L15.0436 14.4174C15.1262 14.4379 15.223 14.4638 15.3315 14.4927Z" fill="white"/>
</g>
<defs>
<clipPath id="clip0_1752_6157">
<rect width="31.9964" height="32" fill="white"/>
</clipPath>
</defs>
</svg>
