<svg width="21" height="21" viewBox="0 0 21 21" fill="none" xmlns="http://www.w3.org/2000/svg">
<path fill-rule="evenodd" clip-rule="evenodd" d="M8.73209 4.81807C8.66621 4.81807 8.60164 4.8364 8.54559 4.87101C8.48954 4.90562 8.44422 4.95514 8.41471 5.01403L7.80268 6.23809H4.74325C4.4608 6.23809 4.1899 6.3503 3.99018 6.55003C3.79045 6.74975 3.67824 7.02065 3.67824 7.3031V14.4032C3.67824 14.6857 3.79045 14.9565 3.99018 15.1563C4.1899 15.356 4.4608 15.4682 4.74325 15.4682H16.1034C16.3859 15.4682 16.6568 15.356 16.8565 15.1563C17.0562 14.9565 17.1684 14.6857 17.1684 14.4032V7.3031C17.1684 7.02065 17.0562 6.74975 16.8565 6.55003C16.6568 6.3503 16.3859 6.23809 16.1034 6.23809H13.044L12.4319 5.01403C12.4024 4.95514 12.3571 4.90562 12.3011 4.87101C12.245 4.8364 12.1804 4.81807 12.1146 4.81807H8.73209ZM7.77925 4.69737C7.86765 4.52032 8.00362 4.37139 8.17192 4.2673C8.34022 4.16321 8.5342 4.10807 8.73209 4.10806H12.1146C12.3125 4.10807 12.5064 4.16321 12.6747 4.2673C12.843 4.37139 12.979 4.52032 13.0674 4.69737L13.4828 5.52808H16.1034C16.3365 5.52808 16.5673 5.57399 16.7827 5.6632C16.998 5.7524 17.1937 5.88315 17.3585 6.04797C17.5234 6.2128 17.6541 6.40848 17.7433 6.62383C17.8325 6.83919 17.8784 7.07001 17.8784 7.3031V14.4032C17.8784 14.6363 17.8325 14.8671 17.7433 15.0825C17.6541 15.2978 17.5234 15.4935 17.3585 15.6583C17.1937 15.8232 16.998 15.9539 16.7827 16.0431C16.5673 16.1323 16.3365 16.1782 16.1034 16.1782H4.74325C4.27249 16.1782 3.821 15.9912 3.48812 15.6583C3.15524 15.3254 2.96823 14.874 2.96823 14.4032V7.3031C2.96823 6.83234 3.15524 6.38086 3.48812 6.04797C3.821 5.71509 4.27249 5.52808 4.74325 5.52808H7.3639L7.77925 4.69737Z" fill="white"/>
<path fill-rule="evenodd" clip-rule="evenodd" d="M10.4233 13.3382C10.7497 13.3382 11.0728 13.2739 11.3743 13.149C11.6758 13.0241 11.9497 12.8411 12.1805 12.6103C12.4113 12.3796 12.5943 12.1056 12.7192 11.8041C12.8441 11.5026 12.9083 11.1795 12.9083 10.8532C12.9083 10.5268 12.8441 10.2037 12.7192 9.90217C12.5943 9.60067 12.4113 9.32673 12.1805 9.09597C11.9497 8.86521 11.6758 8.68217 11.3743 8.55728C11.0728 8.4324 10.7497 8.36812 10.4233 8.36812C9.76424 8.36812 9.13216 8.62994 8.66613 9.09597C8.2001 9.562 7.93828 10.1941 7.93828 10.8532C7.93828 11.5122 8.2001 12.1443 8.66613 12.6103C9.13216 13.0764 9.76424 13.3382 10.4233 13.3382ZM10.4233 14.0482C11.2707 14.0482 12.0834 13.7116 12.6825 13.1124C13.2817 12.5132 13.6184 11.7005 13.6184 10.8532C13.6184 10.0058 13.2817 9.1931 12.6825 8.59392C12.0834 7.99473 11.2707 7.65811 10.4233 7.65811C9.57594 7.65811 8.76326 7.99473 8.16408 8.59392C7.56489 9.1931 7.22827 10.0058 7.22827 10.8532C7.22827 11.7005 7.56489 12.5132 8.16408 13.1124C8.76326 13.7116 9.57594 14.0482 10.4233 14.0482Z" fill="white"/>
</svg>
