<svg width="21" height="21" viewBox="0 0 21 21" fill="none" xmlns="http://www.w3.org/2000/svg">
<path d="M12.9327 8.36812V12.6282H15.0628V8.36812H12.9327ZM12.5777 7.65811H15.4178C15.5119 7.65811 15.6022 7.69551 15.6688 7.76209C15.7354 7.82867 15.7728 7.91896 15.7728 8.01312V12.9832C15.7728 13.0773 15.7354 13.1676 15.6688 13.2342C15.6022 13.3008 15.5119 13.3382 15.4178 13.3382H12.5777C12.4836 13.3382 12.3933 13.3008 12.3267 13.2342C12.2601 13.1676 12.2227 13.0773 12.2227 12.9832V8.01312C12.2227 7.91896 12.2601 7.82867 12.3267 7.76209C12.3933 7.69551 12.4836 7.65811 12.5777 7.65811Z" fill="#27AE60"/>
<path d="M13.6427 5.52808H14.3527V8.01311H13.6427V5.52808ZM13.6427 12.9832H14.3527V15.4682H13.6427V12.9832Z" fill="#27AE60"/>
<path d="M7.25266 6.23809V14.7582H9.38269V6.23809H7.25266ZM6.89765 5.52808H9.73769C9.83184 5.52808 9.92214 5.56548 9.98872 5.63205C10.0553 5.69863 10.0927 5.78893 10.0927 5.88308V15.1132C10.0927 15.2074 10.0553 15.2977 9.98872 15.3642C9.92214 15.4308 9.83184 15.4682 9.73769 15.4682H6.89765C6.8035 15.4682 6.7132 15.4308 6.64663 15.3642C6.58005 15.2977 6.54265 15.2074 6.54265 15.1132V5.88308C6.54265 5.78893 6.58005 5.69863 6.64663 5.63205C6.7132 5.56548 6.8035 5.52808 6.89765 5.52808Z" fill="#27AE60"/>
<path d="M7.96263 3.39804H8.67264V5.88307H7.96263V3.39804ZM7.96263 15.1132H8.67264V17.5982H7.96263V15.1132Z" fill="#27AE60"/>
</svg>
