<svg width="529" height="242" viewBox="0 0 529 242" fill="none" xmlns="http://www.w3.org/2000/svg">
<rect x="3.75125" y="95.3911" width="1.42002" height="13.5169" fill="#27AE60"/>
<rect x="0.911194" y="108.908" width="7.10009" height="72.4113" fill="#27AE60"/>
<rect x="3.75125" y="181.319" width="1.42002" height="13.3933" fill="#27AE60"/>
<rect x="168.229" y="7.46213" width="1.42002" height="5.82139" fill="#27AE60"/>
<rect x="165.389" y="13.2835" width="7.10009" height="132.759" fill="#27AE60"/>
<rect x="168.229" y="146.043" width="1.42002" height="4.13143" fill="#27AE60"/>
<rect x="387.534" y="0.916107" width="1.42002" height="5.82139" fill="#27AE60"/>
<rect x="384.693" y="6.7375" width="7.10009" height="132.759" fill="#27AE60"/>
<rect x="387.534" y="139.497" width="1.42002" height="4.13143" fill="#27AE60"/>
<rect x="401.24" y="8.18549" width="1.42002" height="5.82139" fill="#27AE60"/>
<rect x="398.4" y="14.0069" width="7.10009" height="132.759" fill="#27AE60"/>
<rect x="401.24" y="146.766" width="1.42002" height="4.13143" fill="#27AE60"/>
<rect x="223.055" y="26.6324" width="1.42002" height="5.82139" fill="#27AE60"/>
<rect x="220.215" y="32.4538" width="7.10009" height="103.649" fill="#27AE60"/>
<rect x="223.055" y="136.102" width="1.42002" height="4.13143" fill="#27AE60"/>
<rect x="236.762" y="3.7038" width="1.42002" height="5.82139" fill="#27AE60"/>
<rect x="233.922" y="9.52519" width="7.10009" height="103.649" fill="#27AE60"/>
<rect x="236.762" y="113.174" width="1.42002" height="4.13143" fill="#27AE60"/>
<rect x="140.816" y="126.744" width="1.42002" height="13.5169" fill="#27AE60"/>
<rect x="137.976" y="140.261" width="7.10009" height="72.4911" fill="#27AE60"/>
<rect x="140.816" y="212.752" width="1.42002" height="13.3933" fill="#27AE60"/>
<rect x="154.523" y="72.783" width="1.42002" height="13.5169" fill="#27AE60"/>
<rect x="151.683" y="86.2999" width="7.10009" height="72.4911" fill="#27AE60"/>
<rect x="154.523" y="158.791" width="1.42002" height="13.3933" fill="#27AE60"/>
<rect x="17.4577" y="99.2524" width="1.42002" height="13.5169" fill="#27AE60"/>
<rect x="14.6177" y="112.769" width="7.10009" height="14.9803" fill="#27AE60"/>
<rect x="17.4577" y="127.75" width="1.42002" height="13.3933" fill="#27AE60"/>
<rect x="44.8708" y="214.785" width="1.42002" height="5.47298" fill="#27AE60"/>
<rect x="42.0307" y="220.258" width="7.10009" height="13.383" fill="#27AE60"/>
<rect x="44.8708" y="233.641" width="1.42002" height="5.28433" fill="#27AE60"/>
<rect x="291.588" y="135.101" width="1.42002" height="5.47298" fill="#27AE60"/>
<rect x="288.748" y="140.574" width="7.10009" height="13.383" fill="#27AE60"/>
<rect x="291.588" y="153.957" width="1.42002" height="5.28433" fill="#27AE60"/>
<rect x="58.5773" y="209.501" width="1.42002" height="5.47298" fill="#27AE60"/>
<rect x="55.7372" y="214.973" width="7.10009" height="13.383" fill="#27AE60"/>
<rect x="58.5773" y="228.356" width="1.42002" height="5.28433" fill="#27AE60"/>
<rect x="305.294" y="129.816" width="1.42002" height="5.47298" fill="#27AE60"/>
<rect x="302.454" y="135.289" width="7.10009" height="13.383" fill="#27AE60"/>
<rect x="305.294" y="148.672" width="1.42002" height="5.28433" fill="#27AE60"/>
<rect x="72.2838" y="205.451" width="1.42002" height="5.47298" fill="#27AE60"/>
<rect x="69.4437" y="210.924" width="7.10009" height="13.383" fill="#27AE60"/>
<rect x="72.2838" y="224.307" width="1.42002" height="5.28433" fill="#27AE60"/>
<rect x="319.001" y="125.767" width="1.42002" height="5.47298" fill="#27AE60"/>
<rect x="316.161" y="131.24" width="7.10009" height="13.383" fill="#27AE60"/>
<rect x="319.001" y="144.623" width="1.42002" height="5.28433" fill="#27AE60"/>
<rect x="85.9903" y="202.168" width="1.42002" height="5.47298" fill="#27AE60"/>
<rect x="83.1502" y="207.641" width="7.10009" height="13.383" fill="#27AE60"/>
<rect x="85.9903" y="221.024" width="1.42002" height="5.28433" fill="#27AE60"/>
<rect x="332.707" y="122.484" width="1.42002" height="5.47298" fill="#27AE60"/>
<rect x="329.867" y="127.957" width="7.10009" height="13.383" fill="#27AE60"/>
<rect x="332.707" y="141.34" width="1.42002" height="5.28433" fill="#27AE60"/>
<rect x="113.403" y="201.812" width="1.42002" height="5.47298" fill="#27AE60"/>
<rect x="110.563" y="207.285" width="7.10009" height="13.383" fill="#27AE60"/>
<rect x="113.403" y="220.668" width="1.42002" height="5.28433" fill="#27AE60"/>
<rect x="250.468" y="14.5622" width="1.42002" height="5.47298" fill="#27AE60"/>
<rect x="247.628" y="20.0352" width="7.10009" height="13.383" fill="#27AE60"/>
<rect x="250.468" y="33.4182" width="1.42002" height="5.28433" fill="#27AE60"/>
<rect x="264.175" y="23.9902" width="1.42002" height="5.47298" fill="#27AE60"/>
<rect x="261.335" y="29.4632" width="7.10009" height="13.383" fill="#27AE60"/>
<rect x="264.175" y="42.8462" width="1.42002" height="5.28433" fill="#27AE60"/>
<rect x="127.11" y="204.904" width="1.42002" height="5.47298" fill="#27AE60"/>
<rect x="124.27" y="210.377" width="7.10009" height="13.383" fill="#27AE60"/>
<rect x="127.11" y="223.76" width="1.42002" height="5.28433" fill="#27AE60"/>
<rect x="99.6967" y="173.604" width="1.42002" height="5.47298" fill="#27AE60"/>
<rect x="96.8567" y="179.077" width="7.10009" height="36.1033" fill="#27AE60"/>
<rect x="99.6967" y="215.181" width="1.42002" height="5.28433" fill="#27AE60"/>
<rect x="346.414" y="96.7674" width="1.42002" height="5.47298" fill="#27AE60"/>
<rect x="343.574" y="102.24" width="7.10009" height="36.1033" fill="#27AE60"/>
<rect x="346.414" y="138.344" width="1.42002" height="5.28433" fill="#27AE60"/>
<rect x="360.12" y="73.4314" width="1.42002" height="5.47298" fill="#27AE60"/>
<rect x="357.28" y="78.9044" width="7.10009" height="36.1033" fill="#27AE60"/>
<rect x="360.12" y="115.008" width="1.42002" height="5.28433" fill="#27AE60"/>
<rect x="456.066" y="142.63" width="1.42002" height="5.47298" fill="#27AE60"/>
<rect x="453.226" y="148.103" width="7.10009" height="36.1033" fill="#27AE60"/>
<rect x="456.066" y="184.207" width="1.42002" height="5.28433" fill="#27AE60"/>
<rect x="469.772" y="106.758" width="1.42002" height="5.47298" fill="#27AE60"/>
<rect x="466.932" y="112.231" width="7.10009" height="36.1033" fill="#27AE60"/>
<rect x="469.772" y="148.334" width="1.42002" height="5.28433" fill="#27AE60"/>
<rect x="483.479" y="86.8909" width="1.42002" height="5.47298" fill="#27AE60"/>
<rect x="480.639" y="92.3639" width="7.10009" height="36.1033" fill="#27AE60"/>
<rect x="483.479" y="128.467" width="1.42002" height="5.28433" fill="#27AE60"/>
<rect x="497.186" y="69.2597" width="1.42002" height="5.47298" fill="#27AE60"/>
<rect x="494.346" y="74.7327" width="7.10009" height="36.1033" fill="#27AE60"/>
<rect x="497.186" y="110.836" width="1.42002" height="5.28433" fill="#27AE60"/>
<rect x="524.188" y="69.2597" width="1.42002" height="5.47298" fill="#27AE60"/>
<rect x="521.348" y="74.7327" width="7.10009" height="36.1033" fill="#27AE60"/>
<rect x="524.188" y="110.836" width="1.42002" height="5.28433" fill="#27AE60"/>
<rect x="31.1642" y="102.603" width="1.42002" height="13.5169" fill="#EB5757"/>
<rect x="28.3242" y="116.12" width="7.10009" height="112.252" fill="#EB5757"/>
<rect x="31.1642" y="228.372" width="1.42002" height="13.3933" fill="#EB5757"/>
<rect x="277.881" y="25.8102" width="1.42002" height="13.5169" fill="#EB5757"/>
<rect x="275.041" y="39.3271" width="7.10009" height="112.252" fill="#EB5757"/>
<rect x="277.881" y="151.579" width="1.42002" height="13.3933" fill="#EB5757"/>
<rect x="181.936" y="12.3429" width="1.42002" height="4.73867" fill="#EB5757"/>
<rect x="179.096" y="17.0816" width="7.10009" height="43.423" fill="#EB5757"/>
<rect x="181.936" y="60.5045" width="1.42002" height="6.50908" fill="#EB5757"/>
<rect x="195.642" y="43.1257" width="1.42002" height="4.73867" fill="#EB5757"/>
<rect x="192.802" y="47.8644" width="7.10009" height="43.423" fill="#EB5757"/>
<rect x="195.642" y="91.2873" width="1.42002" height="6.50908" fill="#EB5757"/>
<rect x="209.349" y="85.5899" width="1.42002" height="4.73867" fill="#EB5757"/>
<rect x="206.509" y="90.3286" width="7.10009" height="43.423" fill="#EB5757"/>
<rect x="209.349" y="133.752" width="1.42002" height="6.50908" fill="#EB5757"/>
<rect x="373.827" y="82.0265" width="1.42002" height="4.73867" fill="#EB5757"/>
<rect x="370.987" y="86.7651" width="7.10009" height="43.423" fill="#EB5757"/>
<rect x="373.827" y="130.188" width="1.42002" height="6.50908" fill="#EB5757"/>
<rect x="414.946" y="10.3022" width="1.42002" height="4.73867" fill="#EB5757"/>
<rect x="412.106" y="15.0408" width="7.10009" height="104.484" fill="#EB5757"/>
<rect x="414.946" y="119.525" width="1.42002" height="6.50908" fill="#EB5757"/>
<rect x="428.653" y="64.9134" width="1.42002" height="4.73867" fill="#EB5757"/>
<rect x="425.813" y="69.6521" width="7.10009" height="104.484" fill="#EB5757"/>
<rect x="428.653" y="174.136" width="1.42002" height="6.50908" fill="#EB5757"/>
<rect x="442.359" y="93.891" width="1.42002" height="14.5346" fill="#EB5757"/>
<rect x="439.519" y="108.426" width="7.10009" height="83.4081" fill="#EB5757"/>
<rect x="442.359" y="191.834" width="1.42002" height="17.7889" fill="#EB5757"/>
<rect x="510.892" y="0.916107" width="1.42002" height="14.5346" fill="#EB5757"/>
<rect x="508.052" y="15.4507" width="7.10009" height="83.4081" fill="#EB5757"/>
<rect x="510.892" y="98.8588" width="1.42002" height="17.7889" fill="#EB5757"/>
</svg>
