<svg width="21" height="21" viewBox="0 0 21 21" fill="none" xmlns="http://www.w3.org/2000/svg">
<path d="M10.5412 4.81807C8.94059 4.81807 7.40555 5.45391 6.27375 6.58571C5.14195 7.7175 4.50612 9.25255 4.50612 10.8532C4.50612 12.4538 5.14195 13.9888 6.27375 15.1206C7.40555 16.2524 8.94059 16.8882 10.5412 16.8882C12.1418 16.8882 13.6768 16.2524 14.8086 15.1206C15.9404 13.9888 16.5763 12.4538 16.5763 10.8532C16.5763 9.25255 15.9404 7.7175 14.8086 6.58571C13.6768 5.45391 12.1418 4.81807 10.5412 4.81807ZM3.79611 10.8532C3.79611 9.06424 4.50675 7.3486 5.7717 6.08365C7.03665 4.8187 8.75229 4.10806 10.5412 4.10806C12.3301 4.10806 14.0457 4.8187 15.3107 6.08365C16.5756 7.3486 17.2863 9.06424 17.2863 10.8532C17.2863 12.6421 16.5756 14.3577 15.3107 15.6227C14.0457 16.8876 12.3301 17.5982 10.5412 17.5982C8.75229 17.5982 7.03665 16.8876 5.7717 15.6227C4.50675 14.3577 3.79611 12.6421 3.79611 10.8532Z" fill="white"/>
<path d="M7.34615 10.4981H10.1862V7.65811H10.8962V10.4981H13.7362V11.2082H10.8962V14.0482H10.1862V11.2082H7.34615V10.4981Z" fill="white"/>
</svg>
