<svg width="21" height="21" viewBox="0 0 21 21" fill="none" xmlns="http://www.w3.org/2000/svg">
<path d="M14.7192 6.53111L16.2124 13.0007L16.9039 12.841L15.4108 6.37136L14.7192 6.53111ZM10.0999 10.4404L15.518 13.8882L15.8993 13.289L10.4812 9.84117L10.0999 10.4404ZM10.4095 8.81095L13.8261 6.24852L13.4 5.68052L9.98348 8.24294L10.4095 8.81095ZM7.98196 10.3105L4.63001 15.0988L5.21151 15.5056L8.56346 10.7173L7.98196 10.3105ZM4.69533 15.1684L6.33545 5.87577L5.63609 5.75223L3.99597 15.0448L4.69533 15.1684ZM6.61946 5.78489L8.03592 8.26424L8.65221 7.91208L7.23574 5.43272L6.61946 5.78489Z" fill="white"/>
<path d="M6.23528 5.46252C6.82317 5.46252 7.3003 4.98539 7.3003 4.39751C7.3003 3.80962 6.82317 3.33249 6.23528 3.33249C5.64739 3.33249 5.17027 3.80962 5.17027 4.39751C5.17027 4.98539 5.64739 5.46252 6.23528 5.46252ZM6.23528 6.17253C5.25476 6.17253 4.46026 5.37803 4.46026 4.39751C4.46026 3.41698 5.25476 2.62248 6.23528 2.62248C7.2158 2.62248 8.0103 3.41698 8.0103 4.39751C8.0103 5.37803 7.2158 6.17253 6.23528 6.17253ZM4.10525 17.5327C4.69314 17.5327 5.17027 17.0556 5.17027 16.4677C5.17027 15.8798 4.69314 15.4027 4.10525 15.4027C3.51737 15.4027 3.04024 15.8798 3.04024 16.4677C3.04024 17.0556 3.51737 17.5327 4.10525 17.5327ZM4.10525 18.2427C3.12473 18.2427 2.33023 17.4482 2.33023 16.4677C2.33023 15.4871 3.12473 14.6926 4.10525 14.6926C5.08578 14.6926 5.88028 15.4871 5.88028 16.4677C5.88028 17.4482 5.08578 18.2427 4.10525 18.2427ZM9.07532 10.4326C9.66321 10.4326 10.1403 9.95546 10.1403 9.36757C10.1403 8.77968 9.66321 8.30256 9.07532 8.30256C8.48743 8.30256 8.0103 8.77968 8.0103 9.36757C8.0103 9.95546 8.48743 10.4326 9.07532 10.4326ZM9.07532 11.1426C8.0948 11.1426 7.3003 10.3481 7.3003 9.36757C7.3003 8.38705 8.0948 7.59255 9.07532 7.59255C10.0558 7.59255 10.8503 8.38705 10.8503 9.36757C10.8503 10.3481 10.0558 11.1426 9.07532 11.1426ZM14.7554 6.17253C15.3433 6.17253 15.8204 5.6954 15.8204 5.10751C15.8204 4.51963 15.3433 4.0425 14.7554 4.0425C14.1675 4.0425 13.6904 4.51963 13.6904 5.10751C13.6904 5.6954 14.1675 6.17253 14.7554 6.17253ZM14.7554 6.88254C13.7749 6.88254 12.9804 6.08804 12.9804 5.10751C12.9804 4.12699 13.7749 3.33249 14.7554 3.33249C15.7359 3.33249 16.5304 4.12699 16.5304 5.10751C16.5304 6.08804 15.7359 6.88254 14.7554 6.88254ZM16.8854 15.4027C17.4733 15.4027 17.9504 14.9255 17.9504 14.3376C17.9504 13.7497 17.4733 13.2726 16.8854 13.2726C16.2975 13.2726 15.8204 13.7497 15.8204 14.3376C15.8204 14.9255 16.2975 15.4027 16.8854 15.4027ZM16.8854 16.1127C15.9049 16.1127 15.1104 15.3182 15.1104 14.3376C15.1104 13.3571 15.9049 12.5626 16.8854 12.5626C17.8659 12.5626 18.6604 13.3571 18.6604 14.3376C18.6604 15.3182 17.8659 16.1127 16.8854 16.1127Z" fill="white"/>
</svg>
