<svg width="21" height="21" viewBox="0 0 21 21" fill="none" xmlns="http://www.w3.org/2000/svg">
<path fill-rule="evenodd" clip-rule="evenodd" d="M3.75029 8.05547L3.45919 7.54426L3.43789 7.51586L3.45919 7.48746C3.86999 6.74442 4.36817 6.05317 4.94311 5.42843C5.98682 4.29242 7.49914 3.21321 9.43037 3.21321C11.3687 3.21321 12.8739 4.29952 13.9247 5.42843C14.4971 6.0536 14.9929 6.74483 15.4015 7.48746L15.4228 7.51586L15.4015 7.54426C14.9907 8.2873 14.4926 8.97855 13.9176 9.60329C12.8739 10.7393 11.3616 11.8185 9.43037 11.8185C7.49204 11.8185 5.98682 10.7322 4.93601 9.60329C4.49674 9.12439 4.10222 8.60629 3.75739 8.05547H3.75029ZM16.14 7.35966L15.8205 7.51586L16.14 7.67206L16.1329 7.68626C16.0995 7.75363 16.0639 7.81994 16.0264 7.88507C15.5883 8.67928 15.0567 9.41822 14.443 10.0861C13.3354 11.286 11.6456 12.5285 9.43037 12.5285C7.21514 12.5285 5.52532 11.286 4.4177 10.0861C3.75303 9.36259 3.18501 8.55591 2.72788 7.68626V7.67206H2.72078L3.04029 7.51586L2.72078 7.35966L2.72788 7.34546C2.76142 7.27816 2.79694 7.21187 2.83438 7.14666C3.2724 6.3524 3.80395 5.61347 4.4177 4.94563C5.52532 3.74571 7.21514 2.5032 9.43037 2.5032C11.6456 2.5032 13.3354 3.74571 14.443 4.94563C15.1077 5.66919 15.6757 6.47585 16.1329 7.34546V7.35966H16.14ZM15.8205 7.51586L16.14 7.35966L16.211 7.51586L16.14 7.67206L15.8205 7.51586ZM2.72078 7.35966L3.04029 7.51586L2.72078 7.67206L2.64978 7.51586L2.72078 7.35966ZM7.54885 7.51586C7.55254 7.27282 7.60419 7.0329 7.70085 6.80988C7.7975 6.58685 7.93724 6.38511 8.11206 6.21623C8.28688 6.04735 8.49333 5.91466 8.71956 5.82576C8.94579 5.73687 9.18735 5.69354 9.43037 5.69824C9.67339 5.69354 9.91495 5.73687 10.1412 5.82576C10.3674 5.91466 10.5739 6.04735 10.7487 6.21623C10.9235 6.38511 11.0632 6.58685 11.1599 6.80988C11.2565 7.0329 11.3082 7.27282 11.3119 7.51586C11.3082 7.7589 11.2565 7.99882 11.1599 8.22185C11.0632 8.44487 10.9235 8.64661 10.7487 8.81549C10.5739 8.98438 10.3674 9.11707 10.1412 9.20596C9.91495 9.29485 9.67339 9.33819 9.43037 9.33349C9.18735 9.33819 8.94579 9.29485 8.71956 9.20596C8.49333 9.11707 8.28688 8.98438 8.11206 8.81549C7.93724 8.64661 7.7975 8.44487 7.70085 8.22185C7.60419 7.99882 7.55254 7.7589 7.54885 7.51586ZM9.43037 4.98823C9.09411 4.98354 8.76023 5.04525 8.44786 5.16983C8.13549 5.2944 7.85077 5.4794 7.61003 5.71421C7.36928 5.94902 7.17724 6.22903 7.0449 6.53819C6.91257 6.84735 6.84254 7.17959 6.83884 7.51586C6.84254 7.85214 6.91257 8.18437 7.0449 8.49354C7.17724 8.8027 7.36928 9.08271 7.61003 9.31752C7.85077 9.55233 8.13549 9.73732 8.44786 9.8619C8.76023 9.98648 9.09411 10.0482 9.43037 10.0435C10.8504 10.0435 12.0219 8.92168 12.0219 7.51586C12.0182 7.17959 11.9482 6.84735 11.8158 6.53819C11.6835 6.22903 11.4915 5.94902 11.2507 5.71421C11.01 5.4794 10.7253 5.2944 10.4129 5.16983C10.1005 5.04525 9.76663 4.98354 9.43037 4.98823ZM15.0039 13.5083L15.5719 12.9403L16.069 13.4444L15.508 14.0124C15.443 14.0788 15.4066 14.168 15.4066 14.261C15.4066 14.3539 15.443 14.4431 15.508 14.5095L15.927 14.9284C16.069 15.0704 16.282 15.0704 16.424 14.9284L17.702 13.6503L18.199 14.1544L16.9281 15.4325C16.7284 15.6319 16.4577 15.7439 16.1755 15.7439C15.8932 15.7439 15.6225 15.6319 15.4228 15.4325L15.0039 15.0136C14.8045 14.8139 14.6925 14.5432 14.6925 14.261C14.6925 13.9787 14.8045 13.708 15.0039 13.5083ZM11.9154 15.681L11.6669 15.4325C11.6487 15.4473 11.6321 15.464 11.6172 15.4822L10.9072 16.5472L10.1972 17.6122C10.1609 17.6659 10.14 17.7285 10.1367 17.7932C10.1335 17.8579 10.148 17.9223 10.1787 17.9793C10.2094 18.0364 10.2552 18.0839 10.311 18.1168C10.3668 18.1497 10.4306 18.1667 10.4954 18.166H13.3354C13.8007 18.1519 14.2418 17.9555 14.5637 17.6193C14.9 17.2974 15.0963 16.8563 15.1104 16.391C15.0963 15.9257 14.9 15.4846 14.5637 15.1627C14.2418 14.8264 13.8007 14.6301 13.3354 14.616C12.9135 14.6379 12.5068 14.7809 12.1639 15.0278C11.99 15.144 11.8261 15.2747 11.674 15.4183V15.4254H11.6669L11.9154 15.681ZM12.1923 15.9082L11.5036 16.9448L11.1557 17.456H13.3354C13.5768 17.456 13.8466 17.3353 14.0596 17.1152C14.2726 16.9022 14.4004 16.6324 14.4004 16.391C14.4004 16.1496 14.2797 15.8798 14.0596 15.6668C13.8466 15.4538 13.5768 15.326 13.3354 15.326C13.0869 15.326 12.8029 15.4538 12.5544 15.6242C12.4267 15.7095 12.3056 15.8045 12.1923 15.9082Z" fill="white"/>
</svg>
