<svg width="18" height="19" viewBox="0 0 18 19" fill="none" xmlns="http://www.w3.org/2000/svg">
<path d="M10.5 18.5H7.5C7.10218 18.5 6.72064 18.342 6.43934 18.0607C6.15804 17.7794 6 17.3978 6 17V11.3075L0.4425 5.75C0.160809 5.46999 0.00167459 5.08968 0 4.6925V2C0 1.60218 0.158035 1.22064 0.43934 0.93934C0.720644 0.658035 1.10218 0.5 1.5 0.5H16.5C16.8978 0.5 17.2794 0.658035 17.5607 0.93934C17.842 1.22064 18 1.60218 18 2V4.6925C17.9983 5.08968 17.8392 5.46999 17.5575 5.75L12 11.3075V17C12 17.3978 11.842 17.7794 11.5607 18.0607C11.2794 18.342 10.8978 18.5 10.5 18.5ZM1.5 2V4.6925L7.5 10.6925V17H10.5V10.6925L16.5 4.6925V2H1.5Z" fill="#BCBCC6"/>
</svg>
