<svg width="24" height="24" viewBox="0 0 24 24" fill="none" xmlns="http://www.w3.org/2000/svg">
<path d="M12 1.33334C9.89032 1.33334 7.82803 1.95892 6.0739 3.13099C4.31978 4.30306 2.9526 5.96897 2.14527 7.91805C1.33793 9.86712 1.1267 12.0118 1.53827 14.081C1.94985 16.1501 2.96575 18.0507 4.45751 19.5425C5.94927 21.0342 7.84989 22.0501 9.91902 22.4617C11.9882 22.8733 14.1329 22.6621 16.0819 21.8547C18.031 21.0474 19.6969 19.6802 20.869 17.9261C22.0411 16.172 22.6667 14.1097 22.6667 12C22.6667 9.17103 21.5428 6.45792 19.5425 4.45753C17.5421 2.45714 14.829 1.33334 12 1.33334ZM12 21.3333C10.154 21.3333 8.34952 20.7859 6.81466 19.7604C5.2798 18.7348 4.08353 17.2772 3.37711 15.5717C2.67069 13.8663 2.48586 11.9896 2.84599 10.1792C3.20612 8.36867 4.09503 6.70563 5.40032 5.40034C6.70561 4.09505 8.36865 3.20614 10.1791 2.84601C11.9896 2.48588 13.8663 2.67071 15.5717 3.37713C17.2771 4.08354 18.7348 5.27982 19.7604 6.81468C20.7859 8.34954 21.3333 10.154 21.3333 12C21.3333 14.4754 20.35 16.8493 18.5996 18.5997C16.8493 20.35 14.4753 21.3333 12 21.3333Z" fill="#BCBCC6"/>
<path d="M12.1934 5.94666C11.4709 5.93472 10.7547 6.08205 10.0957 6.37816C9.4366 6.67428 8.85084 7.11193 8.38002 7.66C8.31461 7.72061 8.26203 7.79374 8.22538 7.87504C8.18874 7.95635 8.16878 8.04418 8.16669 8.13333C8.16664 8.21558 8.18315 8.29701 8.21521 8.37276C8.24728 8.4485 8.29425 8.51703 8.35334 8.57425C8.41243 8.63147 8.48242 8.67622 8.55916 8.70584C8.6359 8.73546 8.71781 8.74935 8.80002 8.74666C8.97614 8.7423 9.14454 8.67351 9.27335 8.55333C9.62966 8.13578 10.0722 7.80039 10.5705 7.57022C11.0688 7.34005 11.6111 7.22056 12.16 7.22C13.7334 7.22 14.7134 8.23333 14.7134 9.49333V9.52666C14.7134 11 13.54 11.82 11.6867 11.96C11.6116 11.9629 11.5381 11.9816 11.4707 12.0149C11.4034 12.0482 11.3439 12.0954 11.2961 12.1533C11.2482 12.2112 11.2132 12.2785 11.1932 12.3509C11.1732 12.4233 11.1687 12.4991 11.18 12.5733C11.18 12.5733 11.18 14.12 11.18 14.4067C11.1966 14.5717 11.2741 14.7246 11.3974 14.8355C11.5206 14.9465 11.6808 15.0075 11.8467 15.0067H11.92C12.085 14.9901 12.2379 14.9126 12.3489 14.7893C12.4598 14.666 12.5209 14.5058 12.52 14.34V12.9667C14.52 12.6867 16.14 11.6333 16.14 9.44666V9.41333C16.12 7.41333 14.56 5.94666 12.1934 5.94666Z" fill="#BCBCC6"/>
<path d="M11.8534 18.3C12.3136 18.3 12.6867 17.9269 12.6867 17.4667C12.6867 17.0064 12.3136 16.6333 11.8534 16.6333C11.3931 16.6333 11.02 17.0064 11.02 17.4667C11.02 17.9269 11.3931 18.3 11.8534 18.3Z" fill="#BCBCC6"/>
</svg>
