<svg width="21" height="21" viewBox="0 0 21 21" fill="none" xmlns="http://www.w3.org/2000/svg">
<path d="M12.8499 6.2381C12.8499 5.76733 12.6629 5.31585 12.33 4.98297C11.9971 4.65008 11.5456 4.46307 11.0749 4.46307C10.6041 4.46307 10.1526 4.65008 9.81975 4.98297C9.48687 5.31585 9.29986 5.76733 9.29986 6.2381V14.0482C9.29986 14.519 9.11285 14.9704 8.77996 15.3033C8.44708 15.6362 7.9956 15.8232 7.52483 15.8232C7.05407 15.8232 6.60258 15.6362 6.2697 15.3033C5.93682 14.9704 5.74981 14.519 5.74981 14.0482M14.6249 12.6282L11.0749 16.1782L14.6249 12.6282ZM11.0749 12.6282L14.6249 16.1782L11.0749 12.6282ZM6.81482 8.72313H11.7849H6.81482Z" stroke="white" stroke-width="0.710009"/>
</svg>
