<svg width="21" height="21" viewBox="0 0 21 21" fill="none" xmlns="http://www.w3.org/2000/svg">
<path d="M5.42169 15.9328L15.3618 5.99264L14.8598 5.49066L4.91971 15.4308L5.42169 15.9328Z" fill="white"/>
<path d="M16.1754 5.7413C16.7633 5.7413 17.2404 5.26417 17.2404 4.67628C17.2404 4.0884 16.7633 3.61127 16.1754 3.61127C15.5875 3.61127 15.1104 4.0884 15.1104 4.67628C15.1104 5.26417 15.5875 5.7413 16.1754 5.7413ZM16.1754 6.45131C15.1949 6.45131 14.4004 5.65681 14.4004 4.67628C14.4004 3.69576 15.1949 2.90126 16.1754 2.90126C17.1559 2.90126 17.9504 3.69576 17.9504 4.67628C17.9504 5.65681 17.1559 6.45131 16.1754 6.45131ZM4.10525 17.8115C4.69314 17.8115 5.17027 17.3343 5.17027 16.7464C5.17027 16.1586 4.69314 15.6814 4.10525 15.6814C3.51737 15.6814 3.04024 16.1586 3.04024 16.7464C3.04024 17.3343 3.51737 17.8115 4.10525 17.8115ZM4.10525 18.5215C3.12473 18.5215 2.33023 17.727 2.33023 16.7464C2.33023 15.7659 3.12473 14.9714 4.10525 14.9714C5.08578 14.9714 5.88028 15.7659 5.88028 16.7464C5.88028 17.727 5.08578 18.5215 4.10525 18.5215Z" fill="white"/>
</svg>
