<svg width="21" height="21" viewBox="0 0 21 21" fill="none" xmlns="http://www.w3.org/2000/svg">
<path fill-rule="evenodd" clip-rule="evenodd" d="M10.1404 4.43541C9.57545 4.43541 9.03367 4.65983 8.63421 5.05928C8.23476 5.45874 8.01034 6.00052 8.01034 6.56544V8.69547H14.0454C14.5162 8.69547 14.9677 8.88248 15.3006 9.21536C15.6334 9.54824 15.8204 9.99973 15.8204 10.4705V15.4406C15.8204 15.6737 15.7745 15.9045 15.6853 16.1198C15.5961 16.3352 15.4654 16.5309 15.3006 16.6957C15.1357 16.8605 14.9401 16.9913 14.7247 17.0805C14.5093 17.1697 14.2785 17.2156 14.0454 17.2156H6.23532C6.00222 17.2156 5.7714 17.1697 5.55605 17.0805C5.34069 16.9913 5.14502 16.8605 4.98019 16.6957C4.81536 16.5309 4.68462 16.3352 4.59541 16.1198C4.50621 15.9045 4.4603 15.6737 4.4603 15.4406V10.4705C4.4603 9.99973 4.64731 9.54824 4.98019 9.21536C5.31307 8.88248 5.76455 8.69547 6.23532 8.69547H7.30033V6.56544C7.30033 5.81222 7.59955 5.08984 8.13216 4.55723C8.66477 4.02462 9.38715 3.7254 10.1404 3.7254C10.8936 3.7254 11.616 4.02462 12.1486 4.55723C12.6812 5.08984 12.9804 5.81222 12.9804 6.56544H12.2704C12.2704 6.00052 12.046 5.45874 11.6465 5.05928C11.2471 4.65983 10.7053 4.43541 10.1404 4.43541ZM9.43036 12.2455C9.43036 12.0572 9.50517 11.8766 9.63832 11.7435C9.77147 11.6103 9.95207 11.5355 10.1404 11.5355C10.3287 11.5355 10.5093 11.6103 10.6424 11.7435C10.7756 11.8766 10.8504 12.0572 10.8504 12.2455V13.6655C10.8504 13.8538 10.7756 14.0344 10.6424 14.1676C10.5093 14.3007 10.3287 14.3755 10.1404 14.3755C9.95207 14.3755 9.77147 14.3007 9.63832 14.1676C9.50517 14.0344 9.43036 13.8538 9.43036 13.6655V12.2455ZM5.17031 10.4705C5.17031 9.88118 5.64601 9.40548 6.23532 9.40548H14.0454C14.6347 9.40548 15.1104 9.88118 15.1104 10.4705V15.4406C15.1104 16.0299 14.6347 16.5056 14.0454 16.5056H6.23532C5.95286 16.5056 5.68197 16.3934 5.48224 16.1936C5.28251 15.9939 5.17031 15.723 5.17031 15.4406V10.4705Z" fill="white"/>
</svg>
