<svg width="47" height="47" viewBox="0 0 47 47" fill="none" xmlns="http://www.w3.org/2000/svg">
<path d="M17.8998 13.9806C17.8998 13.9806 18.7158 15.4291 20.1845 16.4454C21.6533 17.4618 26.9297 18.1146 26.9297 18.1146L32.9437 16.6171C32.9437 16.6171 36.9022 17.5571 37.833 18.6329C38.7645 19.7087 43.0252 23.0901 37.833 28.6263L37.9897 32.9098L37.6542 40.012C37.6542 40.012 36.9877 40.8071 36.7213 40.8071C36.4557 40.8071 34.8831 40.0127 34.8831 40.0127L35.0894 36.2292L34.8178 34.1077L33.0762 30.6806L31.6075 29.5291C31.6075 29.5291 29.2118 30.424 28.779 30.409C28.3462 30.394 23.5555 30.6806 23.5555 30.6806C23.5555 30.6806 21.4405 30.627 20.7577 30.11L18.9201 39.245L17.8104 39.8645L16.1719 39.1608L16.6484 31.2243L16.1719 29.5291C14.2645 29.5382 13.0634 28.4376 12.297 26.6549L10.118 22.0463L9.41303 18.6466L5.39062 17.4847L4.30701 15.0681L7.2432 13.2037L8.31115 12.0372L10.3955 10.216C10.3955 10.216 12.3819 7.50826 14.4061 8.73157C16.4304 9.95488 17.783 11.4341 17.783 11.4341L17.8998 13.9799V13.9806Z" fill="#8988A5"/>
<path d="M9.85043 11.0783C9.85043 11.0783 9.81452 12.8924 12.6267 12.5249L13.8474 11.8264L14.5981 12.207V13.4636L13.7345 14.5557L11.9706 14.1163L10.4823 14.1013L10.2565 14.8749L10.8061 15.9924L11.8075 17.1759H13.6026L15.9036 16.6498L17.6087 14.6718L18.0128 12.8519L17.6825 10.812L16.3358 9.38369L14.1346 8.63953L12.0333 8.85233L9.85108 11.0783H9.85043Z" fill="black"/>
<path d="M15.3161 17.1765C15.3161 17.1765 14.7116 20.225 10.118 21.0469L11.7271 25.2527C11.7271 25.2527 12.5216 28.5538 13.113 28.6263C13.7037 28.6981 16.3083 29.8143 16.3083 29.8143C16.3083 29.8143 18.7798 28.1785 21.0867 29.3476L20.7792 27.0557C20.7792 27.0557 27.2019 24.3976 31.3771 28.2326C31.3771 28.2326 35.9687 26.1705 37.8409 31.0774L38.0367 28.2326L40.2255 25.6215V22.6024L38.7645 19.7087L36.2311 17.5251L33.5253 16.4454L30.0891 17.4585L26.3977 17.811L23.3773 17.5251L19.9521 15.8299L18.0127 14.5504C18.0127 14.5504 16.3828 17.3247 15.3161 17.1765Z" fill="white"/>
<path d="M19.9521 16.4454L20.2909 16.6151C20.2909 16.6151 25.7756 18.9488 31.3581 17.1086C31.3581 17.1086 36.6489 15.493 39.3677 20.6989C41.1341 24.0836 39.807 26.2736 38.6614 27.3931C37.9545 28.0831 37.5778 29.0427 37.7044 30.0225L38.008 32.3686L37.7599 39.5466C37.7481 39.8846 37.6055 40.2049 37.3622 40.4399C37.1189 40.6749 36.7939 40.8063 36.4557 40.8064H36.0771C35.8929 40.8064 35.7108 40.7673 35.5427 40.6919C35.3747 40.6165 35.2245 40.5063 35.102 40.3687C34.9796 40.2311 34.8877 40.0691 34.8323 39.8935C34.7769 39.7178 34.7593 39.5324 34.7806 39.3494L34.9321 35.8179C34.9798 34.7053 34.6785 33.6057 34.0704 32.6728L31.7948 29.1824C31.7948 29.1824 29.9501 25.816 31.4554 23.4373" stroke="black" stroke-width="1.30556" stroke-miterlimit="10" stroke-linecap="round" stroke-linejoin="round"/>
<path d="M23.5562 30.1107C25.8611 30.4096 29.5793 30.708 31.1636 29.8104M41.1498 18.9044C41.1498 18.9044 43.2374 18.9939 43.3347 22.0456M12.7671 11.8943C12.7671 11.8943 14.5628 10.9895 14.7574 12.7997C14.8546 13.7044 14.3141 14.1019 13.8774 14.4629C13.2312 14.9963 11.6704 14.4779 10.7767 14.1104C10.4523 13.9779 10.1037 14.2638 10.1807 14.6052C10.4105 15.621 11.2017 17.0297 12.9335 17.2986C17.1354 17.9514 20.1454 12.2167 16.1165 9.52402C11.7298 6.59109 9.75775 11.2735 9.75775 11.2735L7.97175 12.2167L7.24325 13.2037C7.24325 13.2037 3.26392 14.2704 4.56947 16.4284L5.71183 17.8972L8.45089 18.155C8.80922 18.1888 9.14282 18.3525 9.38883 18.6152C9.63484 18.878 9.77627 19.2216 9.78647 19.5814L10.4575 22.5469L12.8362 27.6171C13.1651 28.3182 13.7557 28.8626 14.4812 29.1335L16.3084 29.815C16.606 30.5833 16.796 31.2021 16.796 31.2021L16.0277 38.4205C16.0083 38.6026 16.0274 38.7867 16.0837 38.9609C16.1401 39.1351 16.2325 39.2954 16.3549 39.4316C16.4772 39.5678 16.6269 39.6767 16.7941 39.7513C16.9613 39.8258 17.1423 39.8644 17.3254 39.8645H17.8104C18.1142 39.8646 18.4084 39.7588 18.6426 39.5653C18.8767 39.3718 19.036 39.1027 19.0931 38.8044L20.9013 29.3626C20.947 29.1237 20.9581 28.8795 20.934 28.638L20.5821 25.0529" stroke="black" stroke-width="1.30556" stroke-miterlimit="10" stroke-linecap="round" stroke-linejoin="round"/>
</svg>
