<svg width="21" height="21" viewBox="0 0 21 21" fill="none" xmlns="http://www.w3.org/2000/svg">
<path d="M10.1404 7.31378C9.76376 7.31378 9.40257 7.46338 9.13627 7.72969C8.86996 7.99599 8.72035 8.35718 8.72035 8.73379V16.5439H4.4603V8.73379C4.4603 5.59839 7.00497 3.05372 10.1404 3.05372C13.2758 3.05372 15.8204 5.59839 15.8204 8.73379V16.5439H11.5604V8.73379C11.5604 8.35718 11.4108 7.99599 11.1445 7.72969C10.8782 7.46338 10.517 7.31378 10.1404 7.31378ZM8.01034 8.73379C8.01034 8.16888 8.23476 7.62709 8.63421 7.22764C9.03367 6.82818 9.57545 6.60377 10.1404 6.60377C10.7053 6.60377 11.2471 6.82818 11.6465 7.22764C12.046 7.62709 12.2704 8.16888 12.2704 8.73379V15.8339H15.1104V8.73379C15.1104 5.99032 12.8838 3.76373 10.1404 3.76373C7.3969 3.76373 5.17031 5.99032 5.17031 8.73379V15.8339H8.01034V8.73379Z" fill="white"/>
<path fill-rule="evenodd" clip-rule="evenodd" d="M4.81528 12.9938H8.36532V13.7039H4.81528V12.9938ZM11.9154 12.9938H15.4654V13.7039H11.9154V12.9938Z" fill="white"/>
</svg>
