<svg width="21" height="21" viewBox="0 0 21 21" fill="none" xmlns="http://www.w3.org/2000/svg">
<path d="M1.47052 16.5823L2.08042 15.9759L2.23733 15.814C2.36513 15.6791 2.50713 15.5237 2.66121 15.349C3.1007 14.8491 3.5402 14.2996 3.94987 13.7174C4.6471 12.7262 5.18387 11.7464 5.49556 10.8198C6.37172 8.21624 9.72509 7.47144 11.831 9.9231C14.1392 12.6105 11.8047 16.583 8.01184 16.583H1.47194L1.47052 16.5823ZM8.01042 15.8723C11.2367 15.8723 13.1736 12.5764 11.2914 10.3853C9.55185 8.35966 6.87156 8.95465 6.16794 11.0463C5.8314 12.046 5.2641 13.0834 4.52995 14.1256C4.10465 14.7306 3.64883 15.2993 3.19371 15.8176L3.14543 15.873H8.01113L8.01042 15.8723Z" fill="white"/>
<path d="M13.1096 4.51353L12.1021 5.42661C11.3701 6.09047 11.3389 7.20234 12.034 7.89744L13.3667 9.23013C14.0596 9.9231 15.1793 9.90748 15.8609 9.19818L19.8725 5.02758L19.3605 4.53554L15.349 8.70614C14.9415 9.1293 14.279 9.13854 13.8679 8.72815L12.5352 7.39546C12.1277 6.98792 12.1461 6.34465 12.5785 5.95272L13.586 5.03965L13.1089 4.51353H13.1096Z" fill="white"/>
</svg>
