<svg width="4" height="15" viewBox="0 0 4 15" fill="none" xmlns="http://www.w3.org/2000/svg">
<path fill-rule="evenodd" clip-rule="evenodd" d="M2.00002 0.833344C2.35364 0.833344 2.69278 0.973819 2.94283 1.22387C3.19288 1.47392 3.33335 1.81305 3.33335 2.16668C3.33335 2.5203 3.19288 2.85944 2.94283 3.10949C2.69278 3.35953 2.35364 3.50001 2.00002 3.50001C1.6464 3.50001 1.30726 3.35953 1.05721 3.10949C0.807163 2.85944 0.666687 2.5203 0.666687 2.16668C0.666687 1.81305 0.807163 1.47392 1.05721 1.22387C1.30726 0.973819 1.6464 0.833344 2.00002 0.833344ZM2.00002 6.16668C2.35364 6.16668 2.69278 6.30715 2.94283 6.5572C3.19288 6.80725 3.33335 7.14639 3.33335 7.50001C3.33335 7.85363 3.19288 8.19277 2.94283 8.44282C2.69278 8.69287 2.35364 8.83334 2.00002 8.83334C1.6464 8.83334 1.30726 8.69287 1.05721 8.44282C0.807163 8.19277 0.666687 7.85363 0.666687 7.50001C0.666687 7.14639 0.807163 6.80725 1.05721 6.5572C1.30726 6.30715 1.6464 6.16668 2.00002 6.16668ZM2.00002 11.5C2.35364 11.5 2.69278 11.6405 2.94283 11.8905C3.19288 12.1406 3.33335 12.4797 3.33335 12.8333C3.33335 13.187 3.19288 13.5261 2.94283 13.7762C2.69278 14.0262 2.35364 14.1667 2.00002 14.1667C1.6464 14.1667 1.30726 14.0262 1.05721 13.7762C0.807163 13.5261 0.666687 13.187 0.666687 12.8333C0.666687 12.4797 0.807163 12.1406 1.05721 11.8905C1.30726 11.6405 1.6464 11.5 2.00002 11.5Z" fill="#BCBCC6"/>
</svg>
