<svg width="21" height="21" viewBox="0 0 21 21" fill="none" xmlns="http://www.w3.org/2000/svg">
<path d="M16.5319 17.2651C16.5305 17.2651 16.5305 13.7172 16.5305 13.7172L11.559 13.7151C11.5604 13.7151 11.5604 17.263 11.5604 17.263L16.5319 17.2651ZM10.8504 13.7172C10.8501 13.6239 10.8682 13.5315 10.9037 13.4452C10.9391 13.3589 10.9913 13.2804 11.0571 13.2143C11.1229 13.1482 11.2011 13.0956 11.2872 13.0597C11.3733 13.0238 11.4657 13.0053 11.559 13.0051H16.5319C16.9231 13.0051 17.2405 13.3161 17.2405 13.7172V17.263C17.2407 17.3563 17.2226 17.4487 17.1872 17.535C17.1517 17.6213 17.0996 17.6998 17.0338 17.7659C16.968 17.8321 16.8898 17.8846 16.8036 17.9205C16.7175 17.9564 16.6252 17.975 16.5319 17.9751H11.559C11.4655 17.9756 11.3728 17.9575 11.2864 17.9218C11.2 17.8862 11.1215 17.8337 11.0556 17.7674C10.9897 17.7011 10.9376 17.6224 10.9023 17.5358C10.8671 17.4492 10.8494 17.3565 10.8504 17.263V13.7172Z" fill="white"/>
<path fill-rule="evenodd" clip-rule="evenodd" d="M13.6904 15.1351H14.4004V16.5551H13.6904V15.1351Z" fill="white"/>
<path d="M15.8204 11.2301C15.8204 10.7593 15.6334 10.3078 15.3005 9.97494C14.9677 9.64206 14.5162 9.45505 14.0454 9.45505C13.5746 9.45505 13.1232 9.64206 12.7903 9.97494C12.4574 10.3078 12.2704 10.7593 12.2704 11.2301V13.3601H12.9804V11.2301C12.9804 10.9476 13.0926 10.6767 13.2923 10.477C13.4921 10.2773 13.7629 10.1651 14.0454 10.1651C14.3279 10.1651 14.5988 10.2773 14.7985 10.477C14.9982 10.6767 15.1104 10.9476 15.1104 11.2301V11.5851H15.8204V11.2301Z" fill="white"/>
<path d="M2.33023 11.377C2.33027 11.1887 2.4051 11.0082 2.53826 10.8751L10.452 2.96129C10.5509 2.86233 10.6684 2.78382 10.7976 2.73025C10.9269 2.67669 11.0654 2.64912 11.2053 2.64912C11.3453 2.64912 11.4838 2.67669 11.6131 2.73025C11.7423 2.78382 11.8598 2.86233 11.9587 2.96129L13.794 4.79667C13.893 4.89557 13.9715 5.01301 14.0251 5.14227C14.0786 5.27152 14.1062 5.41007 14.1062 5.54999C14.1062 5.6899 14.0786 5.82845 14.0251 5.95771C13.9715 6.08697 13.893 6.2044 13.794 6.30331L5.88028 14.2171C5.74716 14.3502 5.56659 14.4251 5.3783 14.4251H3.04024C2.85193 14.4251 2.67134 14.3503 2.53819 14.2171C2.40504 14.084 2.33023 13.9034 2.33023 13.7151V11.377ZM3.04024 11.377V13.7151H5.3783L13.2921 5.80133C13.3251 5.76835 13.3514 5.72918 13.3693 5.68605C13.3871 5.64292 13.3964 5.59668 13.3964 5.54999C13.3964 5.50329 13.3871 5.45706 13.3693 5.41393C13.3514 5.3708 13.3251 5.33162 13.2921 5.29864L11.4567 3.46327C11.4237 3.43021 11.3845 3.40398 11.3414 3.38608C11.2983 3.36819 11.252 3.35897 11.2053 3.35897C11.1587 3.35897 11.1124 3.36819 11.0693 3.38608C11.0262 3.40398 10.987 3.43021 10.954 3.46327L3.04024 11.377Z" fill="white"/>
<path d="M9.53401 4.38133L12.374 7.22137L12.8767 6.71868L10.0367 3.87864L9.53401 4.38133ZM3.14392 10.7714L5.98396 13.6115L6.48664 13.1088L3.64661 10.2687L3.14392 10.7714Z" fill="white"/>
<path d="M10.954 5.29865L4.56396 11.6887L5.06665 12.1914L11.4567 5.80134L10.954 5.29865Z" fill="white"/>
</svg>
