<svg width="57" height="34" viewBox="0 0 57 34" fill="none" xmlns="http://www.w3.org/2000/svg">
<path d="M9.49472 4.04426C6.78557 -0.50089 3.50509 3.42044 2 7.20806V34H55.9326V10.6036C54.2394 17.7056 52.459 12.5677 50.2013 12.5677C47.9437 12.5677 40.8729 25.4997 39.1797 25.4997C37.4865 25.4997 32.5667 9.77553 28.1032 17.324C22.5325 26.7449 21.1898 12.3549 20.6254 9.04074C19.8729 6.43673 18.0292 2.08093 16.6746 5.48979C14.9814 9.75086 12.8812 9.72569 9.49472 4.04426Z" fill="url(#paint0_linear_1752_6189)"/>
<path d="M2 7.20806C3.50509 3.42044 6.78557 -0.50089 9.49472 4.04426C12.8812 9.72569 14.9814 9.75086 16.6746 5.48979C18.0292 2.08093 19.8729 6.43673 20.6254 9.04074C21.1898 12.3549 22.5325 26.745 28.1032 17.324C32.5667 9.77553 37.4865 25.4997 39.1797 25.4997C40.8729 25.4997 47.9437 12.5677 50.2013 12.5677C52.459 12.5677 54.2394 17.7056 55.9326 10.6036" stroke="#B5496F" stroke-width="2.1319" stroke-linecap="round"/>
<defs>
<linearGradient id="paint0_linear_1752_6189" x1="28.9663" y1="2" x2="28.9663" y2="34" gradientUnits="userSpaceOnUse">
<stop stop-color="#E50914" stop-opacity="0.15"/>
<stop offset="1" stop-color="#E50914" stop-opacity="0"/>
</linearGradient>
</defs>
</svg>
