<svg width="21" height="21" viewBox="0 0 21 21" fill="none" xmlns="http://www.w3.org/2000/svg">
<path d="M1.98202 14.2851C1.78229 14.4849 1.67009 14.7558 1.67009 15.0382C1.67009 15.3207 1.78229 15.5916 1.98202 15.7913L4.74331 18.5526C4.94304 18.7523 5.21393 18.8645 5.49639 18.8645C5.77885 18.8645 6.04974 18.7523 6.24947 18.5526L18.2987 6.50332C18.4985 6.3036 18.6107 6.03271 18.6107 5.75025C18.6107 5.46779 18.4985 5.1969 18.2987 4.99717L15.5374 2.23588C15.3377 2.03615 15.0668 1.92394 14.7844 1.92394C14.5019 1.92394 14.231 2.03615 14.0313 2.23588L1.98202 14.2851ZM2.48407 14.7872L3.99023 13.281L5.24536 14.5362L5.74741 14.0341L4.49228 12.779L6.12395 11.1473L8.08196 13.1053L8.58401 12.6033L6.62601 10.6453L8.25768 9.01359L9.51281 10.2687L10.0149 9.76667L8.75973 8.51153L10.3914 6.87986L12.3494 8.83787L12.8515 8.33582L10.8935 6.37781L12.5251 4.74614L13.7803 6.00127L14.2823 5.49922L13.0272 4.24409L14.5333 2.73793C14.5999 2.67136 14.6902 2.63395 14.7844 2.63395C14.8785 2.63395 14.9688 2.67135 15.0354 2.73793L17.7967 5.49922C17.8633 5.5658 17.9007 5.65609 17.9007 5.75025C17.9007 5.8444 17.8632 5.9347 17.7967 6.00127L5.74741 18.0505C5.68084 18.1171 5.59054 18.1545 5.49639 18.1545C5.40224 18.1545 5.31194 18.1171 5.24536 18.0505L2.48407 15.2892C2.4175 15.2227 2.3801 15.1324 2.3801 15.0382C2.3801 14.9441 2.4175 14.8538 2.48407 14.7872Z" fill="white"/>
</svg>
