<svg width="10" height="16" viewBox="0 0 10 16" fill="none" xmlns="http://www.w3.org/2000/svg">
<path d="M4.45969 2.99078L1.50831 6.3637C1.16 6.76185 1.44307 7.38462 1.97169 7.38462H7.87446C7.99276 7.38473 8.10859 7.35072 8.20807 7.28669C8.30754 7.22266 8.38646 7.13131 8.43535 7.02358C8.48425 6.91586 8.50105 6.79632 8.48376 6.67928C8.46647 6.56225 8.41581 6.45268 8.33784 6.3637L5.38646 2.99139C5.3287 2.9253 5.25747 2.87232 5.17754 2.83602C5.09762 2.79972 5.01085 2.78094 4.92307 2.78094C4.83529 2.78094 4.74853 2.79972 4.66861 2.83602C4.58868 2.87232 4.51745 2.9253 4.45969 2.99139V2.99078Z" fill="#4A4F74"/>
<path d="M5.38647 13.0092L8.33786 9.6363C8.68616 9.23815 8.40309 8.61538 7.87447 8.61538L1.9717 8.61538C1.8534 8.61528 1.73757 8.64928 1.63809 8.71331C1.53862 8.77734 1.45971 8.86869 1.41081 8.97642C1.36191 9.08415 1.34511 9.20368 1.3624 9.32072C1.37969 9.43775 1.43035 9.54732 1.50832 9.6363L4.4597 13.0086C4.51746 13.0747 4.5887 13.1277 4.66862 13.164C4.74854 13.2003 4.83531 13.2191 4.92309 13.2191C5.01087 13.2191 5.09763 13.2003 5.17755 13.164C5.25748 13.1277 5.32871 13.0747 5.38647 13.0086L5.38647 13.0092Z" fill="#4A4F74"/>
</svg>
