<svg width="21" height="21" viewBox="0 0 21 21" fill="none" xmlns="http://www.w3.org/2000/svg">
<path d="M10.6989 12.6282C10.4192 12.6282 10.1422 12.5731 9.88376 12.466C9.62534 12.359 9.39052 12.2021 9.19273 12.0043C8.99494 11.8065 8.83805 11.5717 8.731 11.3133C8.62396 11.0548 8.56886 10.7779 8.56886 10.4981C8.56886 10.2184 8.62396 9.94143 8.731 9.683C8.83805 9.42458 8.99494 9.18976 9.19273 8.99197C9.39052 8.79418 9.62534 8.63729 9.88376 8.53024C10.1422 8.4232 10.4192 8.3681 10.6989 8.3681C11.2638 8.3681 11.8056 8.59252 12.205 8.99197C12.6045 9.39143 12.8289 9.93321 12.8289 10.4981C12.8289 11.063 12.6045 11.6048 12.205 12.0043C11.8056 12.4037 11.2638 12.6282 10.6989 12.6282ZM10.6989 11.9181C11.0755 11.9181 11.4367 11.7685 11.703 11.5022C11.9693 11.2359 12.1189 10.8747 12.1189 10.4981C12.1189 10.1215 11.9693 9.76033 11.703 9.49403C11.4367 9.22772 11.0755 9.07811 10.6989 9.07811C10.3223 9.07811 9.96109 9.22772 9.69479 9.49403C9.42848 9.76033 9.27887 10.1215 9.27887 10.4981C9.27887 10.8747 9.42848 11.2359 9.69479 11.5022C9.96109 11.7685 10.3223 11.9181 10.6989 11.9181Z" fill="white"/>
<path fill-rule="evenodd" clip-rule="evenodd" d="M4.31232 11.9182C4.21838 11.9183 4.12533 11.8999 4.03854 11.864C3.95174 11.8281 3.87291 11.7753 3.80658 11.7088C3.74026 11.6423 3.68775 11.5633 3.65208 11.4764C3.61641 11.3895 3.59829 11.2964 3.59876 11.2025V9.79381C3.59782 9.70004 3.6155 9.60701 3.65078 9.52013C3.68606 9.43325 3.73823 9.35423 3.80427 9.28766C3.87032 9.22108 3.94892 9.16828 4.03552 9.13231C4.12212 9.09635 4.215 9.07792 4.30877 9.07812H5.1977C5.32915 8.5643 5.53307 8.07182 5.80334 7.6155L5.15084 6.95874C4.89808 6.67686 4.90376 6.24873 5.17214 5.97964L6.18035 4.97142C6.24663 4.90563 6.32524 4.85355 6.41168 4.81818C6.49812 4.78282 6.59068 4.76485 6.68407 4.76531C6.77746 4.76577 6.86985 4.78465 6.95593 4.82088C7.04201 4.8571 7.1201 4.90994 7.18573 4.97639L7.81693 5.60262C8.27346 5.33343 8.76558 5.12979 9.27884 4.99769V4.10805C9.27884 3.74311 9.60544 3.39804 9.98884 3.39804H11.4089C11.8043 3.39804 12.1189 3.71044 12.1189 4.10805V4.99769C12.6324 5.12973 13.1247 5.33337 13.5815 5.60262L14.212 4.97639C14.2777 4.90999 14.3558 4.8572 14.4419 4.82104C14.528 4.78488 14.6204 4.76606 14.7138 4.76567C14.8072 4.76527 14.8997 4.7833 14.9861 4.81873C15.0725 4.85416 15.1511 4.90629 15.2174 4.97213L16.2256 5.98035C16.3538 6.10954 16.4274 6.28309 16.4313 6.46507C16.4351 6.64706 16.3688 6.82355 16.2462 6.95803C16.2462 6.95803 15.9622 7.24629 15.5944 7.6155C15.8646 8.07182 16.0686 8.5643 16.2 9.07812H17.0889C17.4844 9.07812 17.7989 9.39549 17.7989 9.79381V11.2025C17.7999 11.2962 17.7822 11.3893 17.7469 11.4761C17.7116 11.563 17.6595 11.642 17.5934 11.7086C17.5274 11.7752 17.4488 11.828 17.3622 11.864C17.2756 11.8999 17.1827 11.9183 17.0889 11.9182H16.2C16.0686 12.432 15.8646 12.9244 15.5944 13.3808L16.2206 14.0113C16.287 14.0769 16.3398 14.1551 16.3759 14.2412C16.4121 14.3273 16.4309 14.4197 16.4313 14.5131C16.4317 14.6065 16.4137 14.699 16.3783 14.7854C16.3428 14.8718 16.2907 14.9504 16.2249 15.0166L15.2166 16.0248C15.1504 16.0905 15.0718 16.1425 14.9854 16.1778C14.8991 16.2131 14.8066 16.2311 14.7133 16.2306C14.62 16.2301 14.5277 16.2113 14.4417 16.1751C14.3556 16.139 14.2776 16.0862 14.212 16.0199L13.5808 15.3937C13.1243 15.6628 12.6321 15.8665 12.1189 15.9986V16.8847C12.1189 17.2823 11.7994 17.5982 11.4032 17.5982H9.99452C9.90061 17.5986 9.80755 17.5804 9.72069 17.5447C9.63383 17.509 9.55488 17.4565 9.48838 17.3902C9.42187 17.3239 9.36912 17.2451 9.33316 17.1583C9.2972 17.0716 9.27874 16.9786 9.27884 16.8847V15.9986C8.76533 15.8665 8.27297 15.6629 7.81622 15.3937L7.18573 16.0199C7.12005 16.0863 7.04193 16.1391 6.95582 16.1752C6.86971 16.2114 6.77732 16.2302 6.68392 16.2306C6.59053 16.231 6.49798 16.213 6.41157 16.1775C6.32516 16.1421 6.24659 16.09 6.18035 16.0241L5.17214 15.0159C5.10645 14.9497 5.05447 14.8711 5.01916 14.7847C4.98386 14.6984 4.96592 14.6059 4.96639 14.5126C4.96685 14.4193 4.9857 14.327 5.02185 14.2409C5.05801 14.1549 5.11077 14.0769 5.17711 14.0113L5.80334 13.3808C5.53307 12.9244 5.32915 12.432 5.1977 11.9182H4.31232ZM6.71073 7.52107L6.54956 7.76247C6.19836 8.29071 5.95335 8.88226 5.82819 9.50412L5.76997 9.78813H4.31232C4.31019 9.78813 4.30877 10.2596 4.30877 11.2025C4.30877 11.206 4.79584 11.2081 5.76997 11.2081L5.82819 11.4921C5.95599 12.1191 6.19739 12.7063 6.54956 13.2338L6.71073 13.4752L5.68122 14.5118C5.67838 14.5139 6.01208 14.8505 6.68233 15.5215L7.72178 14.4863L7.96319 14.6474C8.49228 14.9975 9.08384 15.2424 9.70555 15.3688L9.98884 15.4277V16.8847C9.98884 16.8868 10.4603 16.8882 11.4032 16.8882C11.4067 16.8882 11.4089 16.4012 11.4089 15.4277L11.6922 15.3688C12.3139 15.2424 12.9054 14.9975 13.4345 14.6474L13.6759 14.4863L14.7125 15.5158C14.7147 15.5186 15.0512 15.1849 15.7222 14.5147L14.687 13.4752L14.8481 13.2338C15.1993 12.7056 15.4444 12.114 15.5695 11.4921L15.6277 11.2081H17.0854C17.0875 11.2081 17.0889 10.7367 17.0889 9.79381C17.0889 9.79026 16.6019 9.78813 15.6277 9.78813L15.5695 9.50412C15.4444 8.88226 15.1993 8.29071 14.8481 7.76247L14.687 7.52107L15.6639 6.53841L15.7215 6.48019L14.7161 5.47482L13.6759 6.51001L13.4345 6.34884C12.9054 5.99875 12.3139 5.75384 11.6922 5.62747L11.4089 5.56854V4.10805C11.4089 4.10592 10.9374 4.10592 9.99452 4.10805C9.99097 4.10805 9.98884 4.59512 9.98884 5.56854L9.70555 5.62747C9.08384 5.75384 8.49228 5.99875 7.96319 6.34884L7.72178 6.51001L6.68517 5.4805C6.68304 5.47766 6.3465 5.81136 5.67625 6.48019L6.71073 7.52107Z" fill="white"/>
</svg>
