<svg width="21" height="21" viewBox="0 0 21 21" fill="none" xmlns="http://www.w3.org/2000/svg">
<path d="M15.088 5.52809V8.36813H15.798V4.81808H12.248V5.52809H15.088Z" fill="white"/>
<path d="M12.1443 8.97448L15.6944 5.42443L15.1917 4.92175L11.6416 8.47179L12.1443 8.97448ZM5.14788 5.52809V8.36813H4.43787V4.81808H7.98791V5.52809H5.14788Z" fill="white"/>
<path d="M8.0912 8.97412L4.54115 5.42407L5.04384 4.92139L8.59389 8.47143L8.0912 8.97412ZM15.0876 15.4679V12.6278H15.7976V16.1779H12.2476V15.4679H15.0876Z" fill="white"/>
<path d="M12.1443 12.0218L15.6943 15.5719L15.1916 16.0746L11.6416 12.5245L12.1443 12.0218Z" fill="white"/>
<path d="M5.14785 15.4682V12.6282H4.43784V16.1782H7.98788V15.4682H5.14785Z" fill="white"/>
<path d="M8.09117 12.0218L4.54112 15.5719L5.04381 16.0746L8.59386 12.5245L8.09117 12.0218Z" fill="white"/>
</svg>
