<svg width="21" height="20" viewBox="0 0 21 20" fill="none" xmlns="http://www.w3.org/2000/svg">
<g clip-path="url(#clip0_1752_6236)">
<path d="M2.33023 3.56168H17.9504V2.85167H2.33023V3.56168Z" fill="white"/>
<path d="M2.33023 12.0818H17.9504V11.3718H2.33023V12.0818Z" fill="white"/>
<path d="M2.33023 7.82173H16.1754V7.11172H2.33023V7.82173Z" fill="white"/>
<path d="M4.10529 16.3418H17.9505V15.6318H4.10529V16.3418Z" fill="white"/>
<path d="M2.68527 17.0519C3.27316 17.0519 3.75029 16.5747 3.75029 15.9868C3.75029 15.399 3.27316 14.9218 2.68527 14.9218C2.09738 14.9218 1.62026 15.399 1.62026 15.9868C1.62026 16.5747 2.09738 17.0519 2.68527 17.0519ZM2.68527 17.7619C1.70475 17.7619 0.910248 16.9674 0.910248 15.9868C0.910248 15.0063 1.70475 14.2118 2.68527 14.2118C3.66579 14.2118 4.46029 15.0063 4.46029 15.9868C4.46029 16.9674 3.66579 17.7619 2.68527 17.7619ZM17.5955 8.53175C18.1834 8.53175 18.6605 8.05462 18.6605 7.46673C18.6605 6.87885 18.1834 6.40172 17.5955 6.40172C17.0076 6.40172 16.5305 6.87885 16.5305 7.46673C16.5305 8.05462 17.0076 8.53175 17.5955 8.53175ZM17.5955 9.24176C16.6149 9.24176 15.8204 8.44726 15.8204 7.46673C15.8204 6.48621 16.6149 5.69171 17.5955 5.69171C18.576 5.69171 19.3705 6.48621 19.3705 7.46673C19.3705 8.44726 18.576 9.24176 17.5955 9.24176Z" fill="white"/>
</g>
<defs>
<clipPath id="clip0_1752_6236">
<rect width="19.8803" height="19.8803" fill="white" transform="translate(0.200226 0.0116272)"/>
</clipPath>
</defs>
</svg>
