<svg width="21" height="21" viewBox="0 0 21 21" fill="none" xmlns="http://www.w3.org/2000/svg">
<path fill-rule="evenodd" clip-rule="evenodd" d="M3.39526 4.28291C3.1128 4.28291 2.84191 4.39512 2.64218 4.59485C2.44246 4.79457 2.33025 5.06547 2.33025 5.34792C2.33025 5.63038 2.44246 5.90127 2.64218 6.101C2.84191 6.30073 3.1128 6.41294 3.39526 6.41294C3.67772 6.41294 3.94861 6.30073 4.14834 6.101C4.34807 5.90127 4.46028 5.63038 4.46028 5.34792C4.46028 5.06547 4.34807 4.79457 4.14834 4.59485C3.94861 4.39512 3.67772 4.28291 3.39526 4.28291ZM1.62024 5.34792C1.6198 4.90774 1.78293 4.48309 2.07797 4.15641C2.37302 3.82974 2.77891 3.62434 3.21687 3.5801C3.65484 3.53587 4.09361 3.65594 4.44802 3.91701C4.80243 4.17809 5.04719 4.56153 5.13479 4.99292H17.2404V5.70293H5.13479C5.04719 6.13431 4.80243 6.51776 4.44802 6.77884C4.09361 7.03991 3.65484 7.15998 3.21687 7.11575C2.77891 7.07151 2.37302 6.86611 2.07797 6.53944C1.78293 6.21276 1.6198 5.78811 1.62024 5.34792ZM3.39526 11.383C3.1128 11.383 2.84191 11.4952 2.64218 11.6949C2.44246 11.8947 2.33025 12.1656 2.33025 12.448C2.33025 12.7305 2.44246 13.0014 2.64218 13.2011C2.84191 13.4008 3.1128 13.513 3.39526 13.513C3.67772 13.513 3.94861 13.4008 4.14834 13.2011C4.34807 13.0014 4.46028 12.7305 4.46028 12.448C4.46028 12.1656 4.34807 11.8947 4.14834 11.6949C3.94861 11.4952 3.67772 11.383 3.39526 11.383ZM1.62024 12.448C1.6198 12.0078 1.78293 11.5832 2.07797 11.2565C2.37302 10.9298 2.77891 10.7244 3.21687 10.6802C3.65484 10.636 4.09361 10.756 4.44802 11.0171C4.80243 11.2782 5.04719 11.6616 5.13479 12.093H14.4359C14.5239 11.662 14.7688 11.2791 15.1231 11.0183C15.4773 10.7576 15.9158 10.6378 16.3535 10.682C16.7911 10.7262 17.1968 10.9313 17.4918 11.2576C17.7868 11.5839 17.9501 12.0081 17.9501 12.448C17.9501 12.8879 17.7868 13.3121 17.4918 13.6384C17.1968 13.9647 16.7911 14.1698 16.3535 14.2141C15.9158 14.2583 15.4773 14.1384 15.1231 13.8777C14.7688 13.617 14.5239 13.234 14.4359 12.803H5.13479C5.04719 13.2344 4.80243 13.6179 4.44802 13.8789C4.09361 14.14 3.65484 14.2601 3.21687 14.2158C2.77891 14.1716 2.37302 13.9662 2.07797 13.6395C1.78293 13.3129 1.6198 12.8882 1.62024 12.448ZM16.1754 11.383C15.893 11.383 15.6221 11.4952 15.4224 11.6949C15.2226 11.8947 15.1104 12.1656 15.1104 12.448C15.1104 12.7305 15.2226 13.0014 15.4224 13.2011C15.6221 13.4008 15.893 13.513 16.1754 13.513C16.4579 13.513 16.7288 13.4008 16.9285 13.2011C17.1282 13.0014 17.2404 12.7305 17.2404 12.448C17.2404 12.1656 17.1282 11.8947 16.9285 11.6949C16.7288 11.4952 16.4579 11.383 16.1754 11.383ZM3.39526 15.6431C3.1128 15.6431 2.84191 15.7553 2.64218 15.955C2.44246 16.1547 2.33025 16.4256 2.33025 16.7081C2.33025 16.9905 2.44246 17.2614 2.64218 17.4612C2.84191 17.6609 3.1128 17.7731 3.39526 17.7731C3.67772 17.7731 3.94861 17.6609 4.14834 17.4612C4.34807 17.2614 4.46028 16.9905 4.46028 16.7081C4.46028 16.4256 4.34807 16.1547 4.14834 15.955C3.94861 15.7553 3.67772 15.6431 3.39526 15.6431ZM1.62024 16.7081C1.6198 16.2679 1.78293 15.8432 2.07797 15.5166C2.37302 15.1899 2.77891 14.9845 3.21687 14.9403C3.65484 14.896 4.09361 15.0161 4.44802 15.2772C4.80243 15.5382 5.04719 15.9217 5.13479 16.3531H17.2404V17.0631H5.13479C5.04719 17.4945 4.80243 17.8779 4.44802 18.139C4.09361 18.4001 3.65484 18.5201 3.21687 18.4759C2.77891 18.4317 2.37302 18.2263 2.07797 17.8996C1.78293 17.5729 1.6198 17.1483 1.62024 16.7081Z" fill="white"/>
<path fill-rule="evenodd" clip-rule="evenodd" d="M16.1045 7.08034L15.1176 7.52765L14.8264 6.88154L15.8134 6.43423L16.1045 7.08034ZM13.2644 8.35836L12.2775 8.80567L11.9864 8.15956L12.9733 7.71225L13.2644 8.35836ZM10.4244 9.63638L9.43038 10.0837L9.14637 9.43757L10.1333 8.99027L10.4244 9.63638ZM7.58435 10.9144L6.59034 11.3617L6.30634 10.7156L7.29325 10.2683L7.58435 10.9144Z" fill="white"/>
</svg>
