<svg width="21" height="21" viewBox="0 0 21 21" fill="none" xmlns="http://www.w3.org/2000/svg">
<path d="M12.729 13.726L15.5691 16.5661L16.0718 16.0634L13.2317 13.2234L12.729 13.726Z" fill="white"/>
<path d="M9.07533 15.6047C7.47473 15.6047 5.93968 14.9689 4.80789 13.8371C3.67609 12.7053 3.04025 11.1702 3.04025 9.56964C3.04025 7.96904 3.67609 6.434 4.80789 5.3022C5.93968 4.1704 7.47473 3.53456 9.07533 3.53456C10.6759 3.53456 12.211 4.1704 13.3428 5.3022C14.4746 6.434 15.1104 7.96904 15.1104 9.56964C15.1104 11.1702 14.4746 12.7053 13.3428 13.8371C12.211 14.9689 10.6759 15.6047 9.07533 15.6047ZM9.07533 14.8947C10.4876 14.8947 11.8421 14.3337 12.8407 13.335C13.8394 12.3364 14.4004 10.9819 14.4004 9.56964C14.4004 8.15735 13.8394 6.80289 12.8407 5.80425C11.8421 4.80561 10.4876 4.24457 9.07533 4.24457C7.66304 4.24457 6.30858 4.80561 5.30994 5.80425C4.31129 6.80289 3.75026 8.15735 3.75026 9.56964C3.75026 10.9819 4.31129 12.3364 5.30994 13.335C6.30858 14.3337 7.66304 14.8947 9.07533 14.8947Z" fill="white"/>
<path d="M6.59033 9.92465H11.5604V9.21464H6.59033V9.92465Z" fill="white"/>
<path d="M9.43038 12.0547V7.08461H8.72037V12.0547H9.43038Z" fill="white"/>
</svg>
